<mxfile host="app.diagrams.net" modified="2024-07-16T16:29:15.001Z" agent="Mozilla/5.0 (Windows NT 10.0; Win64; x64) AppleWebKit/537.36 (KHTML, like Gecko) Chrome/126.0.0.0 Safari/537.36" etag="fovZcF-k856hZT8RxlNh" version="24.6.5" type="device">
  <diagram name="Trang-1" id="tcFpPNh8nWFnZ067eqjw">
    <mxGraphModel dx="1235" dy="665" grid="1" gridSize="10" guides="1" tooltips="1" connect="1" arrows="1" fold="1" page="1" pageScale="1" pageWidth="827" pageHeight="1169" math="0" shadow="0">
      <root>
        <mxCell id="0" />
        <mxCell id="1" parent="0" />
        <mxCell id="JhWK6gyFwF0qYWcVI8QR-1" value="Admin" style="shape=umlActor;verticalLabelPosition=bottom;verticalAlign=top;html=1;outlineConnect=0;" parent="1" vertex="1">
          <mxGeometry x="80" y="240" width="50" height="80" as="geometry" />
        </mxCell>
        <mxCell id="JhWK6gyFwF0qYWcVI8QR-2" value="View employees List" style="ellipse;whiteSpace=wrap;html=1;" parent="1" vertex="1">
          <mxGeometry x="260" y="240" width="120" height="80" as="geometry" />
        </mxCell>
        <mxCell id="JhWK6gyFwF0qYWcVI8QR-9" value="" style="endArrow=none;html=1;rounded=0;entryX=0;entryY=0.5;entryDx=0;entryDy=0;" parent="1" source="JhWK6gyFwF0qYWcVI8QR-1" target="JhWK6gyFwF0qYWcVI8QR-2" edge="1">
          <mxGeometry width="50" height="50" relative="1" as="geometry">
            <mxPoint x="320" y="300" as="sourcePoint" />
            <mxPoint x="370" y="250" as="targetPoint" />
          </mxGeometry>
        </mxCell>
        <mxCell id="JhWK6gyFwF0qYWcVI8QR-12" value="Login" style="ellipse;whiteSpace=wrap;html=1;" parent="1" vertex="1">
          <mxGeometry x="310" y="430" width="120" height="80" as="geometry" />
        </mxCell>
        <mxCell id="JhWK6gyFwF0qYWcVI8QR-19" value="&amp;lt;&amp;lt;include&amp;gt;&amp;gt;" style="html=1;verticalAlign=bottom;endArrow=open;dashed=1;endSize=8;curved=0;rounded=0;exitX=0.5;exitY=1;exitDx=0;exitDy=0;" parent="1" source="JhWK6gyFwF0qYWcVI8QR-2" target="JhWK6gyFwF0qYWcVI8QR-12" edge="1">
          <mxGeometry x="-0.3457" y="-35" relative="1" as="geometry">
            <mxPoint x="430" y="360" as="sourcePoint" />
            <mxPoint x="350" y="360" as="targetPoint" />
            <mxPoint as="offset" />
          </mxGeometry>
        </mxCell>
        <mxCell id="JhWK6gyFwF0qYWcVI8QR-20" value="Update employee" style="ellipse;whiteSpace=wrap;html=1;" parent="1" vertex="1">
          <mxGeometry x="460" y="400" width="120" height="80" as="geometry" />
        </mxCell>
        <mxCell id="JhWK6gyFwF0qYWcVI8QR-21" value="&amp;lt;&amp;lt;extend&amp;gt;&amp;gt;" style="html=1;verticalAlign=bottom;endArrow=open;dashed=1;endSize=8;curved=0;rounded=0;exitX=0.085;exitY=0.251;exitDx=0;exitDy=0;entryX=1;entryY=1;entryDx=0;entryDy=0;exitPerimeter=0;" parent="1" source="JhWK6gyFwF0qYWcVI8QR-20" target="JhWK6gyFwF0qYWcVI8QR-2" edge="1">
          <mxGeometry x="0.0597" y="27" relative="1" as="geometry">
            <mxPoint x="470" y="250" as="sourcePoint" />
            <mxPoint x="400" y="320" as="targetPoint" />
            <mxPoint as="offset" />
          </mxGeometry>
        </mxCell>
        <mxCell id="JhWK6gyFwF0qYWcVI8QR-23" value="Create employee" style="ellipse;whiteSpace=wrap;html=1;" parent="1" vertex="1">
          <mxGeometry x="510" y="310" width="120" height="80" as="geometry" />
        </mxCell>
        <mxCell id="JhWK6gyFwF0qYWcVI8QR-24" value="&amp;lt;&amp;lt;extend&amp;gt;&amp;gt;" style="html=1;verticalAlign=bottom;endArrow=open;dashed=1;endSize=8;curved=0;rounded=0;exitX=0;exitY=0.5;exitDx=0;exitDy=0;entryX=1;entryY=0.5;entryDx=0;entryDy=0;" parent="1" source="JhWK6gyFwF0qYWcVI8QR-23" target="JhWK6gyFwF0qYWcVI8QR-2" edge="1">
          <mxGeometry x="0.0667" y="-9" relative="1" as="geometry">
            <mxPoint x="480" y="140" as="sourcePoint" />
            <mxPoint x="390" y="180" as="targetPoint" />
            <mxPoint as="offset" />
          </mxGeometry>
        </mxCell>
        <mxCell id="JhWK6gyFwF0qYWcVI8QR-25" value="Delete employee" style="ellipse;whiteSpace=wrap;html=1;" parent="1" vertex="1">
          <mxGeometry x="510" y="200" width="120" height="80" as="geometry" />
        </mxCell>
        <mxCell id="JhWK6gyFwF0qYWcVI8QR-26" value="&amp;lt;&amp;lt;extend&amp;gt;&amp;gt;" style="html=1;verticalAlign=bottom;endArrow=open;dashed=1;endSize=8;curved=0;rounded=0;exitX=0;exitY=0.5;exitDx=0;exitDy=0;entryX=1;entryY=0.375;entryDx=0;entryDy=0;entryPerimeter=0;" parent="1" source="JhWK6gyFwF0qYWcVI8QR-25" target="JhWK6gyFwF0qYWcVI8QR-2" edge="1">
          <mxGeometry x="0.122" y="-7" relative="1" as="geometry">
            <mxPoint x="460" y="20" as="sourcePoint" />
            <mxPoint x="390" y="250" as="targetPoint" />
            <mxPoint as="offset" />
          </mxGeometry>
        </mxCell>
        <mxCell id="JhWK6gyFwF0qYWcVI8QR-27" value="Search employees" style="ellipse;whiteSpace=wrap;html=1;" parent="1" vertex="1">
          <mxGeometry x="490" y="100" width="120" height="80" as="geometry" />
        </mxCell>
        <mxCell id="JhWK6gyFwF0qYWcVI8QR-28" value="&amp;lt;&amp;lt;extend&amp;gt;&amp;gt;" style="html=1;verticalAlign=bottom;endArrow=open;dashed=1;endSize=8;curved=0;rounded=0;exitX=0;exitY=0.5;exitDx=0;exitDy=0;entryX=1;entryY=0;entryDx=0;entryDy=0;" parent="1" source="JhWK6gyFwF0qYWcVI8QR-27" target="JhWK6gyFwF0qYWcVI8QR-2" edge="1">
          <mxGeometry x="0.0377" y="-14" relative="1" as="geometry">
            <mxPoint x="230" y="70" as="sourcePoint" />
            <mxPoint x="140" y="110" as="targetPoint" />
            <mxPoint as="offset" />
          </mxGeometry>
        </mxCell>
        <mxCell id="JhWK6gyFwF0qYWcVI8QR-34" value="View Employee List&lt;div&gt;Function&lt;/div&gt;" style="shape=umlFrame;whiteSpace=wrap;html=1;pointerEvents=0;width=120;height=30;" parent="1" vertex="1">
          <mxGeometry x="190" y="10" width="580" height="530" as="geometry" />
        </mxCell>
        <mxCell id="z_qcHi2Eay5epI3lF1RH-4" value="See employee detail" style="ellipse;whiteSpace=wrap;html=1;" vertex="1" parent="1">
          <mxGeometry x="400" y="30" width="120" height="80" as="geometry" />
        </mxCell>
        <mxCell id="z_qcHi2Eay5epI3lF1RH-5" value="&amp;lt;&amp;lt;extend&amp;gt;&amp;gt;" style="html=1;verticalAlign=bottom;endArrow=open;dashed=1;endSize=8;curved=0;rounded=0;exitX=0;exitY=0.5;exitDx=0;exitDy=0;entryX=0.667;entryY=0;entryDx=0;entryDy=0;entryPerimeter=0;" edge="1" parent="1" source="z_qcHi2Eay5epI3lF1RH-4" target="JhWK6gyFwF0qYWcVI8QR-2">
          <mxGeometry x="0.0377" y="-14" relative="1" as="geometry">
            <mxPoint x="178" y="-20" as="sourcePoint" />
            <mxPoint x="310" y="162" as="targetPoint" />
            <mxPoint as="offset" />
          </mxGeometry>
        </mxCell>
        <mxCell id="z_qcHi2Eay5epI3lF1RH-6" value="View employee detail content" style="ellipse;whiteSpace=wrap;html=1;" vertex="1" parent="1">
          <mxGeometry x="600" y="30" width="120" height="80" as="geometry" />
        </mxCell>
        <mxCell id="z_qcHi2Eay5epI3lF1RH-7" value="&amp;lt;&amp;lt;include&amp;gt;&amp;gt;" style="html=1;verticalAlign=bottom;endArrow=open;dashed=1;endSize=8;curved=0;rounded=0;exitX=0;exitY=0.5;exitDx=0;exitDy=0;entryX=1;entryY=0.5;entryDx=0;entryDy=0;" edge="1" parent="1" source="z_qcHi2Eay5epI3lF1RH-6" target="z_qcHi2Eay5epI3lF1RH-4">
          <mxGeometry y="-10" relative="1" as="geometry">
            <mxPoint x="563" y="20" as="sourcePoint" />
            <mxPoint x="600" y="131" as="targetPoint" />
            <mxPoint as="offset" />
          </mxGeometry>
        </mxCell>
      </root>
    </mxGraphModel>
  </diagram>
</mxfile>
